<?xml version="1.0" encoding="UTF-8" standalone="no"?>
<!DOCTYPE svg PUBLIC "-//W3C//DTD SVG 1.1//EN" "http://www.w3.org/Graphics/SVG/1.1/DTD/svg11.dtd">
<svg width="100%" height="100%" viewBox="0 0 118 118" version="1.1" xmlns="http://www.w3.org/2000/svg" xmlns:xlink="http://www.w3.org/1999/xlink" xml:space="preserve" xmlns:serif="http://www.serif.com/" style="fill-rule:evenodd;clip-rule:evenodd;stroke-linejoin:round;stroke-miterlimit:2;">
    <g transform="matrix(1,0,0,1,-1,0)">
        <g id="Facebook" transform="matrix(1.95447,0,0,1.00789,6.58728,0.555615)">
            <rect x="-2.731" y="-0" width="59.863" height="116.084" style="fill:none;"/>
            <g transform="matrix(4.26372,0,0,8.2681,42.1234,91.1144)">
                <path d="M0,-8L-1.35,-8C-1.888,-8 -2,-7.779 -2,-7.223L-2,-6L0,-6L-0.209,-4L-2,-4L-2,3L-5,3L-5,-4L-7,-4L-7,-6L-5,-6L-5,-8.309C-5,-10.077 -4.069,-11 -1.971,-11L0,-11L0,-8Z" style="fill:white;fill-rule:nonzero;"/>
            </g>
        </g>
    </g>
</svg>
