<?xml version="1.0" encoding="UTF-8" standalone="no"?>
<!DOCTYPE svg PUBLIC "-//W3C//DTD SVG 1.1//EN" "http://www.w3.org/Graphics/SVG/1.1/DTD/svg11.dtd">
<svg width="100%" height="100%" viewBox="0 0 118 118" version="1.1" xmlns="http://www.w3.org/2000/svg" xmlns:xlink="http://www.w3.org/1999/xlink" xml:space="preserve" xmlns:serif="http://www.serif.com/" style="fill-rule:evenodd;clip-rule:evenodd;stroke-linejoin:round;stroke-miterlimit:2;">
    <g transform="matrix(1,0,0,1,-301,0)">
        <g id="Instagram" transform="matrix(1.95447,0,0,1.00789,307.083,0.853425)">
            <rect x="-2.731" y="-0" width="59.863" height="116.084" style="fill:none;"/>
            <g transform="matrix(4.26372,0,0,8.2681,56.8674,34.1803)">
                <path d="M0,5.772C-0.115,8.317 -1.532,9.727 -4.071,9.844C-4.818,9.877 -5.057,9.886 -6.958,9.886C-8.859,9.886 -9.097,9.877 -9.844,9.844C-12.388,9.727 -13.799,8.315 -13.916,5.772C-13.95,5.026 -13.958,4.787 -13.958,2.886C-13.958,0.985 -13.95,0.747 -13.916,0C-13.799,-2.544 -12.387,-3.956 -9.844,-4.071C-9.097,-4.106 -8.859,-4.114 -6.958,-4.114C-5.057,-4.114 -4.818,-4.106 -4.071,-4.071C-1.526,-3.955 -0.114,-2.54 0,0C0.034,0.747 0.042,0.985 0.042,2.886C0.042,4.787 0.034,5.026 0,5.772ZM-4.129,-2.812C-4.867,-2.846 -5.089,-2.852 -6.958,-2.852C-8.827,-2.852 -9.048,-2.845 -9.786,-2.812C-11.685,-2.725 -12.569,-1.826 -12.656,0.058C-12.689,0.795 -12.697,1.017 -12.697,2.886C-12.697,4.755 -12.689,4.976 -12.656,5.715C-12.569,7.594 -11.689,8.498 -9.786,8.585C-9.049,8.618 -8.827,8.626 -6.958,8.626C-5.088,8.626 -4.867,8.619 -4.129,8.585C-2.23,8.499 -1.347,7.597 -1.259,5.715C-1.226,4.977 -1.219,4.755 -1.219,2.886C-1.219,1.017 -1.226,0.795 -1.259,0.058C-1.347,-1.825 -2.232,-2.725 -4.129,-2.812ZM-6.958,-0.709C-4.973,-0.709 -3.363,0.901 -3.363,2.886C-3.363,4.87 -4.973,6.481 -6.958,6.481C-8.943,6.481 -10.553,4.871 -10.553,2.886C-10.553,0.901 -8.943,-0.709 -6.958,-0.709ZM-6.958,5.219C-5.67,5.219 -4.625,4.175 -4.625,2.886C-4.625,1.597 -5.67,0.553 -6.958,0.553C-8.246,0.553 -9.291,1.597 -9.291,2.886C-9.291,4.175 -8.246,5.219 -6.958,5.219ZM-3.221,-0.01C-3.685,-0.01 -4.061,-0.386 -4.061,-0.85C-4.061,-1.314 -3.685,-1.69 -3.221,-1.69C-2.757,-1.69 -2.381,-1.314 -2.381,-0.85C-2.381,-0.387 -2.757,-0.01 -3.221,-0.01Z" style="fill:white;"/>
            </g>
        </g>
    </g>
</svg>
