<?xml version="1.0" encoding="UTF-8" standalone="no"?>
<!DOCTYPE svg PUBLIC "-//W3C//DTD SVG 1.1//EN" "http://www.w3.org/Graphics/SVG/1.1/DTD/svg11.dtd">
<svg width="100%" height="100%" viewBox="0 0 118 118" version="1.1" xmlns="http://www.w3.org/2000/svg" xmlns:xlink="http://www.w3.org/1999/xlink" xml:space="preserve" xmlns:serif="http://www.serif.com/" style="fill-rule:evenodd;clip-rule:evenodd;stroke-linejoin:round;stroke-miterlimit:2;">
    <g transform="matrix(1,0,0,1,-451,0)">
        <g id="Linked-In" serif:id="Linked In" transform="matrix(1.95447,0,0,1.00789,457.331,0.284475)">
            <rect x="-2.731" y="-0" width="59.863" height="116.084" style="fill:none;"/>
            <g transform="matrix(0.547138,0,0,1.061,-392.735,-1843.73)">
                <path d="M739.694,1847.01L713.576,1847.01L713.576,1774.03L739.694,1774.03L739.694,1847.01ZM753.171,1774.03L773.326,1774.03L773.326,1784.16C773.326,1784.16 776.427,1773.94 795.062,1773.94C810.446,1773.94 821.448,1779.93 821.448,1796.39L821.448,1847.01L799.922,1847.01C799.922,1847.01 800.041,1804.44 800.16,1803.13C800.279,1801.81 798.967,1791.08 787.995,1791.08C777.023,1791.08 773.565,1798.95 773.565,1804.91L773.565,1847.01L753.171,1847.01L753.171,1774.03ZM739.694,1750.94C739.694,1758.15 733.848,1764 726.635,1764C719.423,1764 713.576,1758.15 713.576,1750.94C713.576,1743.73 719.423,1737.88 726.635,1737.88C733.848,1737.88 739.694,1743.73 739.694,1750.94Z" style="fill:white;"/>
            </g>
        </g>
    </g>
</svg>
