<?xml version="1.0" encoding="UTF-8" standalone="no"?>
<!DOCTYPE svg PUBLIC "-//W3C//DTD SVG 1.1//EN" "http://www.w3.org/Graphics/SVG/1.1/DTD/svg11.dtd">
<svg width="100%" height="100%" viewBox="0 0 118 117" version="1.1" xmlns="http://www.w3.org/2000/svg" xmlns:xlink="http://www.w3.org/1999/xlink" xml:space="preserve" xmlns:serif="http://www.serif.com/" style="fill-rule:evenodd;clip-rule:evenodd;stroke-linejoin:round;stroke-miterlimit:2;">
    <g transform="matrix(1,0,0,1,-151,0)">
        <g id="Twitter" transform="matrix(1.95447,0,0,1.00789,156.835,3.58075e-15)">
            <rect x="-2.731" y="-0" width="59.863" height="116.084" style="fill:none;"/>
            <g transform="matrix(4.26372,0,0,8.2681,50.9344,81.6433)">
                <path d="M0,-5.709C0.183,-1.669 -2.83,2.835 -8.164,2.835C-9.786,2.835 -11.295,2.359 -12.566,1.544C-11.042,1.725 -9.521,1.301 -8.314,0.355C-9.57,0.332 -10.631,-0.499 -10.998,-1.64C-10.547,-1.554 -10.103,-1.579 -9.7,-1.688C-11.081,-1.967 -12.035,-3.211 -12.004,-4.542C-11.616,-4.326 -11.174,-4.197 -10.703,-4.183C-11.982,-5.038 -12.344,-6.727 -11.592,-8.018C-10.176,-6.279 -8.059,-5.137 -5.672,-5.017C-6.091,-6.813 -4.728,-8.544 -2.873,-8.544C-2.048,-8.544 -1.301,-8.194 -0.777,-7.637C-0.123,-7.765 0.493,-8.005 1.047,-8.334C0.832,-7.663 0.377,-7.101 -0.216,-6.744C0.365,-6.814 0.919,-6.969 1.433,-7.197C1.049,-6.619 0.563,-6.113 0,-5.709" style="fill:white;fill-rule:nonzero;"/>
            </g>
        </g>
    </g>
</svg>
