<?xml version="1.0" encoding="UTF-8" standalone="no"?>
<!DOCTYPE svg PUBLIC "-//W3C//DTD SVG 1.1//EN" "http://www.w3.org/Graphics/SVG/1.1/DTD/svg11.dtd">
<svg width="100%" height="100%" viewBox="0 0 118 118" version="1.1" xmlns="http://www.w3.org/2000/svg" xmlns:xlink="http://www.w3.org/1999/xlink" xml:space="preserve" xmlns:serif="http://www.serif.com/" style="fill-rule:evenodd;clip-rule:evenodd;stroke-linejoin:round;stroke-miterlimit:2;">
    <g transform="matrix(1,0,0,1,-150,-137)">
        <g id="Vimeo" transform="matrix(1.95447,0,0,1.00789,156.095,137.244)">
            <rect x="-2.731" y="-0" width="59.863" height="116.084" style="fill:none;"/>
            <g transform="matrix(2.55549,0,0,4.95553,48.3533,107.623)">
                <path d="M0,-20.11C-3.238,-20.214 -5.432,-18.386 -6.581,-14.624C-5.988,-14.879 -5.411,-15.007 -4.852,-15.007C-3.663,-15.007 -3.139,-14.338 -3.278,-13.003C-3.349,-12.196 -3.873,-11.021 -4.852,-9.474C-5.831,-7.929 -6.565,-7.157 -7.055,-7.157C-7.686,-7.157 -8.262,-8.346 -8.785,-10.729C-8.962,-11.428 -9.276,-13.214 -9.729,-16.086C-10.15,-18.748 -11.269,-19.991 -13.087,-19.816C-13.857,-19.745 -15.012,-19.046 -16.55,-17.717C-17.67,-16.703 -18.807,-15.689 -19.96,-14.675L-18.86,-13.258C-17.812,-13.991 -17.201,-14.36 -17.027,-14.36C-16.225,-14.36 -15.476,-13.1 -14.775,-10.586C-14.146,-8.28 -13.518,-5.975 -12.89,-3.668C-11.948,-1.152 -10.796,0.104 -9.434,0.104C-7.235,0.104 -4.548,-1.96 -1.371,-6.09C1.701,-10.046 3.289,-13.16 3.394,-15.436C3.531,-18.481 2.4,-20.038 0,-20.11" style="fill:white;fill-rule:nonzero;"/>
            </g>
        </g>
    </g>
</svg>
