<?xml version="1.0" encoding="UTF-8" standalone="no"?>
<!DOCTYPE svg PUBLIC "-//W3C//DTD SVG 1.1//EN" "http://www.w3.org/Graphics/SVG/1.1/DTD/svg11.dtd">
<svg width="100%" height="100%" viewBox="0 0 118 118" version="1.1" xmlns="http://www.w3.org/2000/svg" xmlns:xlink="http://www.w3.org/1999/xlink" xml:space="preserve" xmlns:serif="http://www.serif.com/" style="fill-rule:evenodd;clip-rule:evenodd;stroke-linejoin:round;stroke-miterlimit:2;">
    <g transform="matrix(1,0,0,1,-452,-136)">
        <g id="X--twitter-" serif:id="X (twitter)" transform="matrix(1.95447,0,0,1.00789,457.609,136.132)">
            <rect x="-2.731" y="-0" width="59.863" height="116.084" style="fill:none;"/>
            <g transform="matrix(0.0181677,0,0,0.0352303,-95.4315,-21.2261)">
                <path d="M7544.79,3588.56L7988.09,3588.56L5972.48,897.618L5518.8,897.618L7544.79,3588.56ZM8393.28,3806.77L7427.05,3806.77L6517.13,2585.73L5380.25,3806.77L5106.72,3806.77L6396.81,2424.36L5106.72,693.228L6055.65,693.228L6927.97,1855.12L8012.33,693.228L8278.93,693.228L7048.14,2015.25L8393.28,3806.77Z" style="fill:white;fill-rule:nonzero;"/>
            </g>
        </g>
    </g>
</svg>
