<?xml version="1.0" encoding="UTF-8" standalone="no"?>
<!DOCTYPE svg PUBLIC "-//W3C//DTD SVG 1.1//EN" "http://www.w3.org/Graphics/SVG/1.1/DTD/svg11.dtd">
<svg width="100%" height="100%" viewBox="0 0 117 118" version="1.1" xmlns="http://www.w3.org/2000/svg" xmlns:xlink="http://www.w3.org/1999/xlink" xml:space="preserve" xmlns:serif="http://www.serif.com/" style="fill-rule:evenodd;clip-rule:evenodd;stroke-linejoin:round;stroke-miterlimit:2;">
    <g transform="matrix(1,0,0,1,0,-137)">
        <g id="YouTube" transform="matrix(1.95447,0,0,1.00789,5.33759,137.244)">
            <rect x="-2.731" y="-0" width="59.863" height="116.084" style="fill:none;"/>
            <g transform="matrix(0.491899,0,0,0.953877,-350.338,-2478.91)">
                <path d="M770.923,2671.59L752.091,2683.24L752.091,2636.64L770.923,2648.29L789.755,2659.94L770.923,2671.59ZM806.154,2617.34L728.87,2617.34C716.742,2617.34 706.82,2627.26 706.82,2639.39L706.82,2679.85C706.82,2691.98 716.742,2701.9 728.87,2701.9L806.154,2701.9C818.282,2701.9 828.205,2691.98 828.205,2679.85L828.205,2639.39C828.205,2627.26 818.282,2617.34 806.154,2617.34Z" style="fill:white;fill-rule:nonzero;"/>
            </g>
        </g>
    </g>
</svg>
